<svg width="46" height="30" viewBox="0 0 46 30" fill="none" xmlns="http://www.w3.org/2000/svg">
<path d="M3.66205 0.413574C1.3272 0.413574 -0.45069 2.70946 0.193217 4.9668C1.86975 10.8509 4.35504 16.6128 8.06472 21.1431C11.7744 25.6735 16.7916 28.9572 23.2075 29.6087C25.3431 29.8254 27.185 28.0845 27.185 25.9731V21.7576C27.185 21.4945 27.3646 21.3076 27.5695 21.3018C27.6075 21.3009 27.6378 21.2998 27.657 21.2998C28.3938 21.2998 29.9078 22.2229 31.2377 23.6578C32.5676 25.0927 33.7439 26.869 34.3098 27.8529V27.855C34.9502 28.9663 36.1434 29.6372 37.4125 29.6372H42.4885C45.0166 29.6391 46.7083 26.7833 45.4711 24.5713C43.5287 21.0971 39.6535 17.6608 37.7156 15.947C41.2662 12.0479 43.6203 7.79872 44.6634 4.98104C45.4506 2.85217 43.8275 0.456299 41.5384 0.456299H37.915C36.3399 0.456299 34.8714 1.22373 34.2712 2.45215C31.4511 8.23093 28.9375 10.3534 27.1667 11.8821V4.0411C27.1667 2.08493 25.5435 0.47216 23.5941 0.468506L17.2485 0.458333C15.2278 0.455833 13.9748 2.95156 15.1855 4.57007L16.4103 6.20988L16.4123 6.21395C16.6222 6.49154 16.7337 6.82416 16.7337 7.1661V7.16813L16.7582 13.707C14.2343 11.0452 11.4922 5.40683 10.6648 2.8916V2.88957C10.1816 1.42031 8.79143 0.428253 7.25702 0.423747H7.25498L3.66408 0.413574H3.66205ZM3.66205 3.53857L7.24888 3.54875C7.46935 3.54927 7.63149 3.66823 7.69647 3.86613C8.72386 6.99033 11.4232 12.943 14.8457 16.2766C15.7345 17.1425 17.0389 17.318 18.0501 16.9073C19.0612 16.4966 19.8852 15.4323 19.8852 14.1831V14.1811L19.8587 7.1661C19.8587 6.14445 19.5243 5.15088 18.9107 4.3361L18.9086 4.33203L18.3491 3.58537L23.588 3.59351C23.8615 3.59404 24.0417 3.77227 24.0417 4.0411V11.9614C24.0417 14.4976 27.2358 15.9548 29.1564 14.297H29.1585C30.919 12.7763 34.0343 10.0622 37.0788 3.8234C37.1494 3.6789 37.088 3.5813 37.915 3.5813H41.5384C41.7494 3.5813 41.8112 3.68177 41.7317 3.89665C40.8454 6.29065 38.5842 10.4654 35.2315 14.0773C34.1981 15.1907 34.2402 17.0304 35.4085 18.0649C37.2399 19.6848 41.2369 23.4016 42.7429 26.0951C42.8807 26.3415 42.7771 26.5124 42.4906 26.5122H37.4125C37.2377 26.5122 37.0941 26.4269 37.0178 26.2945C36.341 25.118 35.0999 23.227 33.5306 21.5338C31.9613 19.8405 30.0931 18.1748 27.657 18.1748C27.588 18.1748 27.5315 18.1757 27.4881 18.1768H27.4841H27.482C25.5432 18.2315 24.06 19.8769 24.06 21.7576V25.9731C24.06 26.297 23.8102 26.5292 23.5229 26.5C17.9774 25.9369 13.7976 23.2129 10.4817 19.1636C7.16586 15.1142 4.79769 9.72408 3.19818 4.11027C3.10875 3.79677 3.30106 3.53857 3.66205 3.53857Z" fill="#CA5E20"/>
</svg>
