<svg width="23" height="16" viewBox="0 0 23 16" fill="none" xmlns="http://www.w3.org/2000/svg">
<path d="M1.83101 0.707031C0.663587 0.707031 -0.22536 1.85498 0.096593 2.98364C0.934857 5.9257 2.17751 8.80666 4.03234 11.0718C5.88718 13.337 8.39579 14.9789 11.6038 15.3046C12.6716 15.4129 13.5925 14.5425 13.5925 13.4868V11.379C13.5925 11.2475 13.6823 11.154 13.7847 11.1512C13.8037 11.1507 13.8189 11.1501 13.8285 11.1501C14.1969 11.1501 14.9539 11.6117 15.6189 12.3291C16.2838 13.0466 16.8719 13.9348 17.1549 14.4267V14.4277C17.4751 14.9834 18.0717 15.3188 18.7062 15.3188H21.2443C22.5083 15.3198 23.3541 13.8919 22.7355 12.7859C21.7643 11.0488 19.8267 9.33066 18.8578 8.47375C20.6331 6.52421 21.8101 4.3996 22.3317 2.99076C22.7253 1.92633 21.9137 0.728394 20.7692 0.728394H18.9575C18.1699 0.728394 17.4357 1.11211 17.1356 1.72632C15.7256 4.61571 14.4687 5.67694 13.5833 6.44128V2.52079C13.5833 1.54271 12.7718 0.736324 11.797 0.734497L8.62422 0.729411C7.61386 0.728161 6.98737 1.97602 7.59273 2.78528L8.20511 3.60518L8.20613 3.60722C8.31109 3.74602 8.36686 3.91233 8.36686 4.08329V4.08431L8.37906 7.35376C7.11711 6.02286 5.74609 3.20366 5.33239 1.94605V1.94503C5.09078 1.2104 4.3957 0.714371 3.62849 0.712118H3.62748L1.83203 0.707031H1.83101ZM1.83101 2.26953L3.62442 2.27462C3.73466 2.27488 3.81573 2.33436 3.84822 2.43331C4.36191 3.99541 5.71158 6.97173 7.42285 8.63855C7.86723 9.07148 8.51945 9.15924 9.02502 8.9539C9.53059 8.74855 9.94258 8.21639 9.94258 7.5918V7.59078L9.92936 4.08329C9.92936 3.57247 9.76213 3.07568 9.45532 2.66829L9.4543 2.66626L9.17456 2.29293L11.794 2.297C11.9307 2.29726 12.0208 2.38638 12.0208 2.52079V6.48096C12.0208 7.74905 13.6179 8.47766 14.5782 7.64876H14.5792C15.4595 6.88841 17.0171 5.53136 18.5394 2.41195C18.5747 2.3397 18.544 2.29089 18.9575 2.29089H20.7692C20.8747 2.29089 20.9056 2.34113 20.8658 2.44857C20.4227 3.64557 19.2921 5.73296 17.6157 7.5389C17.099 8.09561 17.1201 9.01543 17.7042 9.53271C18.6199 10.3427 20.6184 12.201 21.3714 13.5478C21.4403 13.671 21.3885 13.7565 21.2453 13.7563H18.7062C18.6188 13.7563 18.547 13.7137 18.5089 13.6475C18.1705 13.0592 17.55 12.1137 16.7653 11.2671C15.9806 10.4205 15.0465 9.58765 13.8285 9.58765C13.794 9.58765 13.7657 9.58811 13.7441 9.58866H13.742H13.741C12.7716 9.61599 12.03 10.4387 12.03 11.379V13.4868C12.03 13.6488 11.9051 13.7648 11.7614 13.7502C8.98867 13.4687 6.89876 12.1067 5.24084 10.082C3.58292 8.05735 2.39883 5.36228 1.59908 2.55538C1.55436 2.39863 1.65051 2.26953 1.83101 2.26953Z" fill="white" fill-opacity="0.5"/>
</svg>
