<svg width="23" height="17" viewBox="0 0 23 17" fill="none" xmlns="http://www.w3.org/2000/svg">
<path d="M11.2012 0.5C7.90039 0.5 4.80078 0.75 3.15039 1.09961C2.05078 1.34961 1.09961 2.09961 0.900391 3.25C0.701172 4.44922 0.5 6.25 0.5 8.5C0.5 10.75 0.699219 12.5 0.949219 13.75C1.15039 14.8496 2.09961 15.6504 3.19922 15.9004C4.95117 16.25 7.94922 16.5 11.25 16.5C14.5508 16.5 17.5488 16.25 19.2988 15.9004C20.4004 15.6504 21.3496 14.9004 21.5488 13.75C21.75 12.5 22 10.7012 22.0488 8.45117C22.0488 6.20117 21.7988 4.40039 21.5488 3.15039C21.3496 2.05078 20.4004 1.25 19.2988 1C17.5488 0.75 14.5 0.5 11.2012 0.5ZM11.2012 1.5C14.8008 1.5 17.6992 1.79883 19.0996 2.04883C19.8496 2.25 20.4492 2.75 20.5488 3.40039C20.8496 5 21.0488 6.70117 21.0488 8.45117C21 10.5996 20.75 12.3496 20.5488 13.5996C20.4004 14.5488 19.4004 14.8496 19.0996 14.9512C17.2988 15.3008 14.2988 15.5488 11.2988 15.5488C8.29883 15.5488 5.25 15.3496 3.5 14.9512C2.75 14.75 2.15039 14.25 2.05078 13.5996C1.65039 12.1992 1.5 10.3496 1.5 8.5C1.5 6.19922 1.70117 4.5 1.90039 3.45117C2.05078 2.5 3.09961 2.19922 3.34961 2.09961C5 1.75 8.05078 1.5 11.2012 1.5ZM8.5 4.5V12.5L15.5 8.5L8.5 4.5ZM9.5 6.20117L13.5 8.5L9.5 10.7988V6.20117Z" fill="white" fill-opacity="0.5"/>
</svg>
